<?xml version="1.0" encoding="utf-8"?>
<!-- Generator: Adobe Illustrator 18.0.0, SVG Export Plug-In . SVG Version: 6.00 Build 0)  -->
<!DOCTYPE svg PUBLIC "-//W3C//DTD SVG 1.1//EN" "http://www.w3.org/Graphics/SVG/1.1/DTD/svg11.dtd">
<svg version="1.1" id="Layer_1" xmlns="http://www.w3.org/2000/svg" xmlns:xlink="http://www.w3.org/1999/xlink" x="0px" y="0px"
	 viewBox="0 0 325 625" enable-background="new 0 0 325 625" xml:space="preserve">
<path fill="none" stroke="#03B2FF" stroke-width="4" stroke-miterlimit="10" d="M85.6,1.3h174.6c0,0,51.8-1.1,51.8,33.3
	s0,539.8,0,539.8s1.5,45.9-38.8,45.9s-221.2,0-221.2,0S14,621,14,580c0-41,0-531.6,0-531.6S11.3,1.3,58.3,1.3S85.6,1.3,85.6,1.3z"/>
<path fill="none" stroke="#03B2FF" stroke-width="3.5" stroke-miterlimit="10" d="M137.8,47.3c0,0,28.5-4.5,47.4,0
	c15.7,3.7,0,10.1,0,10.1s-28.2,6.1-47.4,0C123.3,52.7,137.8,47.3,137.8,47.3z"/>
<path fill="none" stroke="#03B2FF" stroke-width="3.5" stroke-miterlimit="10" d="M163.3,550.9c0,0,17.4,3,21.1,22.4
	c0,0,2.6,25.4-21.1,29.8c0,0-19.9,0.7-27.4-19.4S160.1,545.7,163.3,550.9z"/>
<polygon fill="none" stroke="#03B2FF" stroke-width="4" stroke-miterlimit="10" points="148,568.3 169.5,568.3 172.5,587.3 
	148,587.3 "/>
<circle fill="#03B2FF" cx="160.6" cy="27.7" r="6.2"/>
<rect x="36" y="88.3" fill="none" stroke="#03B2FF" stroke-width="4" stroke-miterlimit="10" width="249" height="447"/>
</svg>
